<svg width="332" height="51" viewBox="0 0 332 51" fill="none" xmlns="http://www.w3.org/2000/svg">
<path d="M0.80957 49.5126H1.59904C3.17799 49.5126 4.29641 48.46 4.29641 46.8152V5.03891C4.29641 3.45996 3.17799 2.34154 1.59904 2.34154H0.80957V1.61786H20.8754C35.5464 1.61786 39.8885 15.0389 39.8885 25.96C39.8885 36.8152 35.5464 50.2363 20.8754 50.2363H0.80957V49.5126ZM12.5859 5.03891V46.8152C12.5859 48.46 13.7043 49.5126 15.349 49.5126H16.0069C30.4148 49.5126 31.5333 36.6836 31.5333 25.96C31.5333 15.1705 30.4148 2.34154 16.0069 2.34154H15.349C13.7043 2.34154 12.5859 3.45996 12.5859 5.03891Z" fill="#1A1A1A"/>
<path d="M59.9173 49.5126H60.7068C62.2857 49.5126 63.4041 48.46 63.4041 46.8152V5.03891C63.4041 3.45996 62.2857 2.34154 60.7068 2.34154H59.9173V1.61786H91.1673L92.5489 11.3547H91.8252L91.6936 10.2363C91.1015 5.43365 87.2857 2.34154 82.4173 2.34154H74.4568C72.812 2.34154 71.6936 3.45996 71.6936 5.03891V25.5652H83.2726C84.8515 25.5652 85.9699 24.4468 85.9699 22.8679V22.1442H86.6278V29.7758H85.9699V28.9863C85.9699 27.4073 84.8515 26.2889 83.2726 26.2889H71.6936V46.8152C71.6936 48.46 72.812 49.5126 74.4568 49.5126H82.4173C87.2857 49.5126 91.1015 46.4205 91.6936 41.6179L91.8252 40.4994H92.5489L91.1673 50.2363H59.9173V49.5126Z" fill="#1A1A1A"/>
<path d="M110.695 49.5126H111.419C112.998 49.5126 114.511 48.46 115.038 46.8152L118.261 37.9336C117.406 37.7363 116.551 37.4731 115.63 37.0126V36.3547C116.617 36.7494 117.669 37.0126 118.524 37.3415L131.551 1.61786H135.038L147.011 34.4468C147.603 34.6442 148.261 34.7758 148.919 34.9731V35.631C148.393 35.4336 147.867 35.3021 147.274 35.1705L151.485 46.8152C152.077 48.46 153.59 49.5126 155.169 49.5126H155.63V50.2363H140.367V49.5126H140.893C142.472 49.5126 143.195 48.46 142.603 46.8152L138.393 35.1705C133.195 36.2231 128.59 38.6573 123.13 38.6573C121.814 38.6573 120.432 38.46 118.985 38.131L115.827 46.8152C115.301 48.46 115.959 49.5126 117.538 49.5126H118.327V50.2363H110.695V49.5126ZM119.248 37.5389C120.564 37.8679 121.88 37.9336 123.13 37.9336C128.524 37.9336 133.13 35.631 138.195 34.5784L129.248 10.0389L119.248 37.5389Z" fill="#1A1A1A"/>
<path d="M190.825 50.96C178.852 50.96 170.628 41.2231 170.628 25.96C170.628 10.631 178.852 0.959961 192.207 0.959961C196.483 0.959961 199.641 1.9468 202.339 3.72312C203.194 4.24944 203.918 4.57838 204.444 4.57838C205.431 4.57838 205.891 3.72312 205.891 2.07838V1.61786H206.615V16.5521H205.891V14.71C205.891 5.82838 199.247 1.61786 192.141 1.61786C183.918 1.61786 178.983 7.47312 178.983 25.96C178.983 41.2231 184.51 49.5126 192.799 49.5126C198.786 49.5126 206.154 45.0389 208.062 36.2889L208.654 36.4863C207.076 44.2494 200.76 50.96 190.825 50.96Z" fill="#1A1A1A"/>
<path d="M228.901 25.96C228.901 10.631 237.124 0.959961 250.085 0.959961C263.045 0.959961 271.269 10.631 271.269 25.96C271.269 41.2231 263.045 50.96 250.085 50.96C237.124 50.96 228.901 41.2231 228.901 25.96ZM237.256 25.96C237.256 44.381 242.19 50.2363 250.085 50.2363C257.98 50.2363 262.914 44.381 262.914 25.96C262.914 7.47312 257.98 1.61786 250.085 1.61786C242.19 1.61786 237.256 7.47312 237.256 25.96Z" fill="#1A1A1A"/>
<path d="M291.208 2.34154V1.61786H304.498L327.327 39.7758V5.03891C327.327 3.45996 326.208 2.34154 324.629 2.34154H323.84V1.61786H331.472V2.34154H330.682C329.103 2.34154 327.985 3.45996 327.985 5.03891V50.2363H322.985L295.419 4.31522C295.353 4.57838 295.353 4.77575 295.353 5.03891V46.8152C295.353 48.46 296.472 49.5126 298.051 49.5126H298.84V50.2363H291.208V49.5126H291.998C293.577 49.5126 294.695 48.46 294.695 46.8152V5.03891C294.695 3.45996 293.577 2.34154 291.998 2.34154H291.208Z" fill="#1A1A1A"/>
</svg>
