<svg width="700" height="509" viewBox="0 0 700 509" fill="none" xmlns="http://www.w3.org/2000/svg">
<g clip-path="url(#clip0_24_67)">
<path d="M230.22 319.056C237.504 330.207 241.765 343.059 242.584 356.353C243.403 369.647 240.753 382.926 234.892 394.887C210.582 444.928 162.45 521.966 113.339 475.076C90.4987 453.242 134.565 420.142 194.13 377.929C194.13 377.929 75.1704 412.665 77.9823 382.122C79.9608 361.047 156.288 349.839 156.288 349.839C156.288 349.839 66.8987 334.727 74.3757 317.727C85.5784 292.609 155.376 321.819 184.265 321.914C184.265 321.914 90.2035 276.575 112.325 249.47C135.35 221.423 192.236 261.521 230.22 319.056Z" fill="#30BD92"/>
</g>
<ellipse cx="205.5" cy="164.5" rx="205.5" ry="164.5" transform="matrix(-0.944911 0.327326 0.327326 0.944911 532.834 55.7964)" fill="#DBC5D3"/>
<ellipse cx="76.0224" cy="121.073" rx="76.0224" ry="121.073" transform="matrix(-0.998042 -0.0625529 -0.0625529 0.998042 643.457 9.51074)" fill="#F2CD51"/>
<ellipse cx="19.2928" cy="43.5814" rx="19.2928" ry="43.5814" transform="matrix(0.107928 0.994159 0.994159 -0.107928 609.182 84.7979)" fill="#DF793F"/>
<path d="M425.242 241.781C428.572 226.23 428.464 210.102 424.925 194.318C421.387 178.534 414.487 163.404 404.619 149.79C394.751 136.177 382.109 124.348 367.414 114.978C352.719 105.607 336.259 98.88 318.975 95.1795C301.69 91.4789 283.919 90.8776 266.676 93.41C249.432 95.9424 233.055 101.559 218.479 109.939C203.902 118.318 191.412 129.298 181.722 142.249C172.031 155.2 165.33 169.871 162 185.422L293.621 213.602L425.242 241.781Z" fill="#DEAFCD"/>
<defs>
<clipPath id="clip0_24_67">
<rect width="206.774" height="198.964" fill="white" transform="matrix(-0.710508 -0.703689 -0.703689 0.710508 286.924 366.964)"/>
</clipPath>
</defs>
</svg>
