<svg width="207" height="251" viewBox="0 0 207 251" fill="none" xmlns="http://www.w3.org/2000/svg">
<path d="M204.46 116.297C203.72 115.86 202.807 116.131 201.993 116.4C194.9 118.762 187.433 120.216 179.96 120.277C177.596 120.297 174.312 118.767 175.109 116.544C175.355 115.845 175.992 115.556 176.626 115.181C180.575 112.775 185.473 112.563 190.088 112.22C194.703 111.877 199.742 110.863 202.602 107.225C205.462 103.588 204.036 96.9988 199.434 96.5151C197.61 96.3131 195.768 96.3272 193.948 96.557C178.921 98.2845 171.244 115.7 152.948 118.404C138.038 120.608 138.662 105.925 143.25 100.932C144.73 99.3136 146.705 97.5417 150.618 95.7747C165.243 89.1734 181.372 86.5724 197.052 83.1668C200.436 82.4265 204.246 81.4394 205.889 78.3917C206.743 76.8099 206.837 74.9368 206.834 73.1403C206.79 53.6448 196.813 34.4405 180.891 23.1998C177.929 21.112 174.79 19.2809 172.063 16.9045C167.26 12.6899 164.001 6.99269 162.802 0.71582C155.872 9.91818 141.905 9.19759 130.797 6.15728C127.767 5.33058 124.228 4.48166 121.723 6.37445C119.218 8.26724 119.073 11.9541 118.678 15.1079C118.283 18.2617 116.58 22.0177 113.404 22.0177C110.352 22.0375 108.521 18.432 108.604 15.3818C108.674 12.8943 109.5 10.4463 109.678 7.97851C109.693 7.78488 109.66 7.59057 109.584 7.41203C109.508 7.23348 109.39 7.07594 109.239 6.95273C109.089 6.82952 108.912 6.74426 108.722 6.70417C108.532 6.66408 108.335 6.67033 108.148 6.7224C62.3262 19.4882 38.4726 36.6171 32.4734 43.1987C26.4076 49.8617 23.2933 60.0635 27.4367 68.0591C29.5837 72.2 33.3347 75.2157 36.5305 78.6237C41.7597 84.1836 45.5946 90.8787 49.3802 97.5047C52.9906 103.82 56.4726 112.215 51.7838 117.777C51.1521 118.518 50.3155 119.204 49.3383 119.243C48.361 119.283 47.4504 118.654 46.6928 118.009C36.5749 109.323 35.763 92.9689 25.3613 84.6303C23.7795 83.3618 21.9064 82.2908 19.8754 82.2859C14.8313 82.2859 12.1685 88.554 12.635 93.5809C13.0399 97.8575 14.6878 101.922 17.3756 105.273C19.2486 107.595 21.5708 109.508 23.8732 111.401L46.33 129.867C48.6078 131.74 50.9769 133.734 52.0627 136.476C53.1485 139.218 52.423 142.917 49.743 144.151C46.9593 145.431 43.7956 143.566 41.3846 141.683C33.6355 135.601 26.818 128.417 21.1488 120.361C17.7433 115.517 12.63 109.619 7.17622 111.914C3.04763 113.654 2.1074 118.972 1.74711 123.436C1.03638 132.347 0.330596 141.367 1.82114 150.179C3.31167 158.992 7.25026 167.72 14.3032 173.219C19.3004 177.115 25.5069 179.141 31.7134 180.417C48.9483 183.958 60.1471 174.477 76.627 176.296C96.1718 178.455 99.106 192.615 134.097 193.817C164.944 194.883 178.517 179.998 182.088 176.972C189.738 170.487 197.462 161.672 202.681 151.213C207.027 142.505 207.254 127.856 205.477 118.288C205.351 117.523 205.122 116.692 204.46 116.297ZM166.829 55.3574C168.873 53.6448 171.271 52.1937 173.922 51.9322C175.008 51.8236 176.204 51.9593 177.004 52.7021C177.391 53.0965 177.698 53.5614 177.91 54.0717C178.976 56.347 180.037 59.4885 178.741 61.8131C177.29 64.4142 174.181 66.5414 171.864 68.3207C169.983 69.7668 167.513 71.1586 165.363 70.1518C164.29 69.6582 163.55 68.6292 163.022 67.5705C162.414 66.398 162.077 65.1046 162.034 63.7849C161.98 60.4411 164.268 57.5069 166.829 55.3574ZM76.2667 85.5483C74.4973 87.6064 71.415 87.7495 68.7029 87.7322C67.3679 87.7322 65.9884 87.71 64.7693 87.1844C62.1707 86.0714 61.0257 83.0854 60.1422 80.4005C56.9538 70.707 54.148 58.0202 56.0309 50.7871C56.9489 47.2705 61.5587 44.82 64.9149 46.1896C66.936 47.0139 68.1057 49.1016 69.0336 51.0783C72.9969 59.4984 75.4918 68.5477 77.202 77.6983C77.7177 80.3807 78.0509 83.4778 76.2667 85.5483Z" fill="#30BD92"/>
<path d="M160.263 9.42676C159.397 14.999 157.63 20.4207 155.263 25.5512C152.896 30.6818 149.94 35.5408 146.734 40.195C143.529 44.8493 140.049 49.311 136.496 53.6963C132.942 58.0815 129.304 62.3927 125.706 66.7237C118.505 75.3757 111.453 84.1364 105.283 93.467C99.1136 102.798 93.8227 112.666 89.9828 123.08C89.0253 125.683 88.1517 128.315 87.362 130.977C86.5798 133.655 85.837 136.34 85.1633 139.042C84.4896 141.744 83.88 144.454 83.342 147.186C82.8041 149.918 82.3549 152.644 81.9675 155.384C81.1988 160.846 80.817 166.355 80.8249 171.871C80.8385 177.347 81.324 182.812 82.276 188.205C83.2428 193.579 84.6804 198.857 86.5724 203.979C87.515 206.543 88.5614 209.075 89.6892 211.577C90.8169 214.08 92.0385 216.553 93.3119 219.008C97.8205 227.692 103.114 236.117 107.941 245.023C108.186 245.478 108.338 245.978 108.386 246.492C108.435 247.007 108.379 247.526 108.224 248.019C108.068 248.511 107.815 248.968 107.479 249.361C107.143 249.754 106.732 250.076 106.27 250.307C105.817 250.534 105.323 250.67 104.817 250.706C104.31 250.742 103.802 250.678 103.321 250.518C102.84 250.357 102.395 250.103 102.011 249.771C101.628 249.438 101.314 249.033 101.088 248.579C96.668 239.831 91.5992 231.206 87.1745 222.07C85.9258 219.487 84.7265 216.866 83.6135 214.201C82.5005 211.536 81.4739 208.823 80.551 206.072C78.6949 200.559 77.3266 194.895 76.4619 189.143C75.6167 183.405 75.2683 177.605 75.4205 171.807C75.5773 166.05 76.1405 160.311 77.106 154.633C77.5822 151.805 78.1424 148.997 78.7692 146.208C79.396 143.42 80.1166 140.656 80.8792 137.907C81.6417 135.158 82.4857 132.436 83.3618 129.721C84.2378 127.007 85.2398 124.309 86.3034 121.654C90.5899 111.043 96.288 101.065 102.85 91.7939C109.412 82.5224 116.753 73.8877 124.213 65.4355C127.942 61.2057 131.696 57.008 135.365 52.7437C139.035 48.4794 142.613 44.1435 145.935 39.6151C149.256 35.0867 152.312 30.3683 154.819 25.3341C157.361 20.3093 159.193 14.9557 160.263 9.42676Z" fill="#30BD92"/>
</svg>
