<svg width="205" height="203" viewBox="0 0 205 203" fill="none" xmlns="http://www.w3.org/2000/svg">
<path d="M111.795 47.4669L109.5 68.5L123.5 56.5L131.507 52.6107C137.79 49.559 144.545 47.5948 151.485 46.8017C156.146 46.269 160.854 46.269 165.515 46.8017L168.6 47.1543C173.502 47.7145 178.283 49.0537 182.763 51.1212L184.928 52.1208C187.628 53.3668 190.129 55.0039 192.352 56.9793C196.06 60.2758 198.901 64.4337 200.625 69.0868L203 75.5L203.673 78.361C204.545 82.0666 204.518 85.9269 203.595 89.62C203.199 91.2025 202.643 92.7403 201.933 94.2092L199.684 98.8681C197.251 103.908 193.855 108.43 189.696 112.174C187.242 114.382 184.539 116.303 181.647 117.894C177.903 119.953 173.874 121.443 169.691 122.314L164 123.5L160.552 124.116C153.531 125.369 146.413 126 139.281 126H131.5L134.513 133.833C137.479 141.545 139 149.737 139 158L138.515 161.559C137.844 166.474 136.235 171.214 133.774 175.52C132.263 178.164 130.446 180.62 128.359 182.838L123.5 188L119.09 191.675C116.044 194.213 112.626 196.352 109.016 197.993C105.386 199.643 101.501 200.807 97.5604 201.414L95.9703 201.658C92.3476 202.216 88.6583 202.18 85.0472 201.552L83.5537 201.292C80.5426 200.768 77.6505 199.706 75.0161 198.157L74.4933 197.849C71.8588 196.299 69.5678 194.229 67.7602 191.764C65.9395 189.281 64.6479 186.451 63.9656 183.449L63.5905 181.798C62.8681 178.62 62.6575 175.346 62.9665 172.102L63.085 170.857C63.3608 167.962 63.9643 165.107 64.884 162.348L70.5 145.5L67.327 146.255C62.4529 147.416 57.4814 148.12 52.4767 148.358L46.3146 148.652C41.4718 148.882 36.6244 148.307 31.97 146.95C28.6682 145.987 25.4913 144.638 22.505 142.931L21.9463 142.612C18.3355 140.549 15.0511 137.961 12.2008 134.932C9.74372 132.321 7.63103 129.407 5.9143 126.26L2.5 120L1 106.5L3.41845 99.7821C4.78923 95.9743 6.98379 92.5162 9.84542 89.6546C11.9348 87.5652 14.3474 85.8263 16.9903 84.5049L18.4723 83.7638C20.8177 82.5911 23.3108 81.6581 25.8481 80.9961C30.8562 79.6897 36.1389 79.3862 41.26 80.1356L54 82L51.4108 76.6225C48.813 71.227 46.872 65.5393 45.6294 59.6812L44.8961 56.2247C44.3004 53.4159 44 50.5526 44 47.6813V47.2648C44 43.1154 44.6689 38.9932 45.9811 35.0567C46.9898 32.0306 48.3697 29.1411 50.0892 26.4544L51.3582 24.4716C54.1053 20.1793 57.4524 16.3022 61.298 12.9583C65.0805 9.66914 69.3072 6.92881 73.8536 4.81796L78.5936 2.61726C80.1916 1.87532 81.876 1.33575 83.6077 1.01106C87.1442 0.347971 90.7913 0.597095 94.2048 1.73492L94.707 1.90233C96.887 2.62899 98.9299 3.71534 100.751 5.11639C103.218 7.0141 105.223 9.44629 106.615 12.2302L106.933 12.8667C107.643 14.2853 108.208 15.7716 108.62 17.3031L109.816 21.744C110.936 25.9056 111.668 30.1896 111.999 34.4868C112.331 38.8015 112.264 43.1649 111.795 47.4669Z" fill="#E7E7DD"/>
<path d="M123.5 56.5L131.507 52.6107C137.79 49.559 144.545 47.5948 151.485 46.8017V46.8017C156.146 46.269 160.854 46.269 165.515 46.8017L168.6 47.1543C173.502 47.7145 178.283 49.0537 182.763 51.1212L184.928 52.1208C187.628 53.3668 190.129 55.0039 192.352 56.9793V56.9793C196.06 60.2758 198.901 64.4337 200.625 69.0868L203 75.5L203.673 78.361C204.545 82.0666 204.518 85.9269 203.595 89.62V89.62C203.199 91.2025 202.643 92.7403 201.933 94.2092L199.684 98.8681C197.251 103.908 193.855 108.43 189.696 112.174V112.174C187.242 114.382 184.539 116.303 181.647 117.894V117.894C177.903 119.953 173.874 121.443 169.691 122.314L164 123.5L160.552 124.116C153.531 125.369 146.413 126 139.281 126H131.5L134.513 133.833C137.479 141.545 139 149.737 139 158V158L138.515 161.559C137.844 166.474 136.235 171.214 133.774 175.52V175.52C132.263 178.164 130.446 180.62 128.359 182.838L123.5 188L119.09 191.675C116.044 194.213 112.626 196.352 109.016 197.993V197.993C105.386 199.643 101.501 200.807 97.5604 201.414L95.9703 201.658C92.3476 202.216 88.6583 202.18 85.0472 201.552L83.5537 201.292C80.5426 200.768 77.6505 199.706 75.0161 198.157L74.4933 197.849C71.8588 196.299 69.5678 194.229 67.7602 191.764V191.764C65.9395 189.281 64.6479 186.451 63.9656 183.449L63.5905 181.798C62.8681 178.62 62.6575 175.346 62.9665 172.102L63.085 170.857C63.3608 167.962 63.9643 165.107 64.884 162.348L70.5 145.5L67.327 146.255C62.4529 147.416 57.4814 148.12 52.4767 148.358L46.3146 148.652C41.4718 148.882 36.6244 148.307 31.97 146.95V146.95C28.6682 145.987 25.4913 144.638 22.505 142.931L21.9463 142.612C18.3355 140.549 15.0511 137.961 12.2008 134.932V134.932C9.74372 132.321 7.63103 129.407 5.9143 126.26L2.5 120L1 106.5L3.41845 99.7821C4.78923 95.9743 6.98379 92.5162 9.84542 89.6546V89.6546C11.9348 87.5652 14.3474 85.8263 16.9903 84.5049L18.4723 83.7638C20.8177 82.5911 23.3108 81.658 25.8481 80.9961V80.9961C30.8562 79.6897 36.1389 79.3862 41.26 80.1356L54 82L51.4108 76.6225C48.813 71.227 46.872 65.5393 45.6294 59.6812L44.8961 56.2247C44.3003 53.4159 44 50.5526 44 47.6813V47.2648C44 43.1154 44.6689 38.9932 45.9811 35.0567V35.0567C46.9898 32.0306 48.3697 29.1411 50.0892 26.4544L51.3582 24.4716C54.1053 20.1793 57.4525 16.3022 61.298 12.9583V12.9583C65.0805 9.66914 69.3072 6.92881 73.8536 4.81796L78.5936 2.61726C80.1916 1.87532 81.876 1.33575 83.6077 1.01106V1.01106C87.1442 0.347971 90.7913 0.597095 94.2047 1.73492L94.707 1.90233C96.887 2.62899 98.9299 3.71534 100.751 5.11639V5.11639C103.218 7.0141 105.223 9.44629 106.615 12.2302L106.933 12.8667C107.643 14.2853 108.208 15.7716 108.62 17.3031L109.816 21.744C110.936 25.9056 111.668 30.1896 111.999 34.4868V34.4868C112.331 38.8015 112.264 43.1649 111.795 47.4669L109.5 68.5L123.5 56.5ZM123.5 56.5L124.5 57.5" stroke="black" stroke-width="0.75"/>
</svg>
