<svg width="16" height="15" viewBox="0 0 16 15" fill="none" xmlns="http://www.w3.org/2000/svg">
<g clip-path="url(#clip0_81_585)">
<path d="M4.31641 10.9161C3.90562 11.0374 3.56099 11.1892 3.18977 11.2489C2.97082 11.2859 2.74891 11.3026 2.52689 11.2986C1.44803 11.272 0.86623 10.503 1.14708 9.45763C1.36869 8.63259 1.87785 7.97576 2.42614 7.34553C2.50765 7.2517 2.59262 7.16089 2.71045 7.03031C2.49814 6.9795 2.31825 6.93539 2.13816 6.89345C1.67526 6.78535 1.22491 6.64611 0.819314 6.38969C-0.240084 5.72076 -0.27792 4.47889 0.746886 3.76368C1.44436 3.27679 2.25188 3.13064 3.07713 3.06686C3.51069 3.03039 3.94688 3.03981 4.37846 3.09496C4.74601 3.14426 4.74601 3.13929 4.6379 2.79596C4.52742 2.44527 4.42754 2.09092 4.42365 1.72077C4.41759 1.13702 4.62558 0.656836 5.16069 0.37469C5.69038 0.095571 6.19306 0.209078 6.65249 0.550464C7.0916 0.876283 7.43082 1.29831 7.74302 1.74218C7.83102 1.86736 7.91382 1.99622 8.01306 2.1441C8.11922 2.044 8.14711 1.92184 8.19662 1.81439C8.42861 1.31323 8.67227 0.819853 9.08846 0.438469C9.48411 0.0748144 9.93857 -0.108527 10.4696 0.0676792C10.9753 0.235453 11.1871 0.65251 11.2825 1.14286C11.3934 1.71126 11.311 2.25912 11.0825 2.7845C11.0066 2.95919 11.0058 3.026 11.2282 3.05691C12.8809 3.28695 14.1628 4.15177 15.1471 5.45483C15.7772 6.28938 15.6066 7.237 14.7818 8.02203C14.6181 8.1777 14.3011 8.27088 14.3102 8.47606C14.3178 8.64751 14.5805 8.80491 14.7238 8.97333C15.065 9.3759 15.3339 9.81933 15.4574 10.3384C15.6708 11.2368 15.0436 12.0452 14.1197 12.0642C13.4841 12.0776 12.909 11.8562 12.3406 11.6043C12.2465 11.5626 12.1657 11.4806 12.0379 11.4962C11.9674 11.9524 11.9145 12.412 11.7906 12.8583C11.671 13.2907 11.5056 13.7004 11.2284 14.0563C10.7139 14.7157 9.95284 14.7778 9.33558 14.2152C8.89885 13.8176 8.67097 13.2983 8.48244 12.7558C8.44504 12.6477 8.41088 12.5396 8.35834 12.3801C8.0269 12.8419 7.72746 13.2741 7.38088 13.6688C7.04901 14.047 6.70654 14.4141 6.27997 14.6898C5.22641 15.3708 4.15058 14.8878 3.95016 13.652C3.83103 12.9169 3.98086 12.2112 4.15318 11.5059C4.19642 11.3284 4.25025 11.154 4.31641 10.9161Z" fill="#B681A3"/>
</g>
<defs>
<clipPath id="clip0_81_585">
<rect width="15.528" height="15" fill="white"/>
</clipPath>
</defs>
</svg>
