<svg width="296" height="151" viewBox="0 0 296 151" fill="none" xmlns="http://www.w3.org/2000/svg">
<path d="M141.056 48.7275C134.277 62.7938 129.248 77.6568 122.335 91.6586C115.423 105.66 106.316 119.07 93.3502 127.77C89.5284 130.334 85.3799 132.472 80.9362 133.675C55.2713 140.635 30.0506 128.157 12.2614 110.232C11.3729 109.336 0.982292 98.2661 0.317383 98.8121C2.65746 96.8862 5.3128 95.5406 7.93232 94.0173C20.428 103.783 33.0097 114.366 46.2964 123.008C71.0084 139.088 103.33 122.435 119.759 102.104C131.911 87.0687 138.359 67.8666 141.056 48.7275Z" fill="#71355C"/>
<path d="M152.304 150.67H186.437C189.053 150.674 191.643 150.153 194.055 149.138C196.466 148.124 198.65 146.636 200.477 144.764C220.437 124.238 222.698 93.8593 220.1 84.6385C212.032 55.9981 187.42 57.2691 182.183 47.9902C176.947 38.7113 185.006 26.6364 186.216 23.0052C187.427 19.374 190.869 14.0604 190.869 6.79803C190.869 -0.464335 185.701 0.74606 185.701 0.74606H153.589C153.589 0.74606 147.861 -0.464335 147.861 6.79803C147.861 14.0604 151.304 19.3861 152.514 23.0052C153.725 26.6243 161.793 38.7137 156.55 47.9902C151.306 57.2666 126.699 55.9981 118.633 84.6385C116.035 93.8593 118.294 124.238 138.253 144.764C140.082 146.637 142.267 148.125 144.68 149.14C147.094 150.154 149.686 150.675 152.304 150.67Z" fill="#DF793F"/>
<path d="M141.131 49.6348C150.221 46.8125 160.141 48.7679 169.042 52.1399C191.569 60.6739 209.664 77.6143 229.25 91.6329C248.837 105.652 264.395 116.361 295.145 115.227C293.613 118.289 293.354 119.758 291.822 122.819C273.201 122.663 253.209 117.782 238.986 105.762C231.503 99.4372 226.239 94.8463 220.859 86.6577C206.796 65.2527 186.781 45.8435 161.623 41.0376C153.756 39.5337 144.879 42.5495 141.131 49.6348Z" fill="#71355C"/>
</svg>
