<svg width="30" height="31" viewBox="0 0 30 31" fill="none" xmlns="http://www.w3.org/2000/svg">
<path d="M12.9598 26.75H17.0598C17.2473 26.75 17.341 26.75 17.4067 26.7023C17.4279 26.6868 17.4466 26.6682 17.462 26.6469C17.5098 26.5812 17.5098 26.4875 17.5098 26.3V17.825C17.5098 17.6375 17.5098 17.5438 17.5575 17.4781C17.5729 17.4568 17.5916 17.4382 17.6128 17.4227C17.6785 17.375 17.7723 17.375 17.9598 17.375H20.8098C20.9973 17.375 21.091 17.375 21.1567 17.3273C21.1779 17.3118 21.1966 17.2932 21.212 17.2719C21.2598 17.2062 21.2598 17.1125 21.2598 16.925V13.45C21.2598 13.2625 21.2598 13.1688 21.212 13.1031C21.1966 13.0818 21.1779 13.0632 21.1567 13.0477C21.091 13 20.9973 13 20.8098 13H17.9598C17.7723 13 17.6785 13 17.6128 12.9523C17.5916 12.9368 17.5729 12.9182 17.5575 12.8969C17.5098 12.8312 17.5098 12.7375 17.5098 12.55V9.075C17.5098 8.88751 17.5098 8.79377 17.5575 8.72805C17.5729 8.70683 17.5916 8.68817 17.6128 8.67275C17.6785 8.625 17.7723 8.625 17.9598 8.625H20.8098C20.9973 8.625 21.091 8.625 21.1567 8.57725C21.1779 8.56183 21.1966 8.54317 21.212 8.52195C21.2598 8.45623 21.2598 8.36249 21.2598 8.175V4.7C21.2598 4.51251 21.2598 4.41877 21.212 4.35305C21.1966 4.33183 21.1779 4.31317 21.1567 4.29775C21.091 4.25 20.9973 4.25 20.8098 4.25H12.9598C12.7723 4.25 12.6785 4.25 12.6128 4.29775C12.5916 4.31317 12.5729 4.33183 12.5575 4.35305C12.5098 4.41877 12.5098 4.51251 12.5098 4.7V12.55C12.5098 12.7375 12.5098 12.8312 12.462 12.8969C12.4466 12.9182 12.4279 12.9368 12.4067 12.9523C12.341 13 12.2473 13 12.0598 13H9.20977C9.02228 13 8.92854 13 8.86282 13.0477C8.8416 13.0632 8.82293 13.0818 8.80751 13.1031C8.75977 13.1688 8.75977 13.2625 8.75977 13.45V16.925C8.75977 17.1125 8.75977 17.2062 8.80751 17.2719C8.82293 17.2932 8.8416 17.3118 8.86282 17.3273C8.92854 17.375 9.02228 17.375 9.20977 17.375H12.0598C12.2473 17.375 12.341 17.375 12.4067 17.4227C12.4279 17.4382 12.4466 17.4568 12.462 17.4781C12.5098 17.5438 12.5098 17.6375 12.5098 17.825V26.3C12.5098 26.4875 12.5098 26.5812 12.5575 26.6469C12.5729 26.6682 12.5916 26.6868 12.6128 26.7023C12.6785 26.75 12.7723 26.75 12.9598 26.75Z" stroke="#1A1A1A" stroke-width="0.833333" stroke-linejoin="round"/>
</svg>
