<svg width="784" height="250" viewBox="0 0 784 250" fill="none" xmlns="http://www.w3.org/2000/svg">
<path d="M783.135 121.964C745.512 236.176 636.707 249.444 556.26 232.704C500.751 221.321 464.61 198.1 402.172 209.483C325.229 221.496 260.038 280.59 188.581 229.53C168.524 212.961 163.446 209.168 133.289 200.823C97.9085 189.495 85.998 225.477 50.2077 216.46C-1.661 200.794 -20.1746 126.54 28.2566 96.948C85.9644 63.7411 132.117 94.4589 186.998 60.9213C238.655 29.3544 260.643 2.83835 335.936 0.0751465C402.366 -1.39819 462.127 18.4014 522.511 18.5705C582.894 18.7333 633.131 -4.85616 693.861 9.51403C765.445 27.544 769.254 70.7249 783.135 121.964Z" fill="#D9D39C"/>
</svg>
