<svg width="30" height="31" viewBox="0 0 30 31" fill="none" xmlns="http://www.w3.org/2000/svg">
<path d="M23.1348 8.625C23.1348 9.31536 22.5751 9.875 21.8848 9.875C21.1944 9.875 20.6348 9.31536 20.6348 8.625C20.6348 7.93464 21.1944 7.375 21.8848 7.375C22.5751 7.375 23.1348 7.93464 23.1348 8.625Z" fill="#1A1A1A"/>
<path d="M3.75977 8.75C3.75977 6.87513 3.75977 5.9377 4.23722 5.28054C4.39142 5.0683 4.57807 4.88166 4.7903 4.72746C5.44747 4.25 6.3849 4.25 8.25977 4.25H21.7598C23.6346 4.25 24.5721 4.25 25.2292 4.72746C25.4415 4.88166 25.6281 5.0683 25.7823 5.28054C26.2598 5.9377 26.2598 6.87513 26.2598 8.75V22.25C26.2598 24.1249 26.2598 25.0623 25.7823 25.7195C25.6281 25.9317 25.4415 26.1183 25.2292 26.2725C24.5721 26.75 23.6346 26.75 21.7598 26.75H8.25977C6.3849 26.75 5.44747 26.75 4.7903 26.2725C4.57807 26.1183 4.39142 25.9317 4.23722 25.7195C3.75977 25.0623 3.75977 24.1249 3.75977 22.25V8.75Z" stroke="#1A1A1A" stroke-width="0.833333" stroke-linejoin="round"/>
<path d="M20.0098 15.5C20.0098 18.2614 17.7712 20.5 15.0098 20.5C12.2483 20.5 10.0098 18.2614 10.0098 15.5C10.0098 12.7386 12.2483 10.5 15.0098 10.5C17.7712 10.5 20.0098 12.7386 20.0098 15.5Z" stroke="#1A1A1A" stroke-width="0.833333" stroke-linejoin="round"/>
</svg>
