<svg width="30" height="31" viewBox="0 0 30 31" fill="none" xmlns="http://www.w3.org/2000/svg">
<path d="M10.0098 13.625C10.0098 10.8636 12.2483 8.625 15.0098 8.625C17.7712 8.625 20.0098 10.8636 20.0098 13.625C20.0098 16.3864 17.7712 18.625 15.0098 18.625C14.1026 18.625 13.2519 18.3834 12.5184 17.9611M12.5184 17.9611L13.7598 12.375M12.5184 17.9611L11.5375 22.375" stroke="#1A1A1A" stroke-width="1.875" stroke-linecap="round" stroke-linejoin="round"/>
<path d="M21.7598 4.25H8.25977C6.3849 4.25 5.44747 4.25 4.7903 4.72746C4.57807 4.88166 4.39142 5.0683 4.23722 5.28054C3.75977 5.9377 3.75977 6.87513 3.75977 8.75V22.25C3.75977 24.1249 3.75977 25.0623 4.23722 25.7195C4.39142 25.9317 4.57807 26.1183 4.7903 26.2725C5.44747 26.75 6.3849 26.75 8.25977 26.75H21.7598C23.6346 26.75 24.5721 26.75 25.2292 26.2725C25.4415 26.1183 25.6281 25.9317 25.7823 25.7195C26.2598 25.0623 26.2598 24.1249 26.2598 22.25V8.75C26.2598 6.87513 26.2598 5.9377 25.7823 5.28054C25.6281 5.0683 25.4415 4.88166 25.2292 4.72746C24.5721 4.25 23.6346 4.25 21.7598 4.25Z" stroke="#1A1A1A" stroke-width="0.833333" stroke-linecap="round" stroke-linejoin="round"/>
</svg>
